<svg fill="#000000" xmlns="http://www.w3.org/2000/svg"  viewBox="0 0 100 100" width="100px" height="100px"><path d="M 50 9 C 47.244499 9 45 11.244499 45 14 C 45 16.755501 47.244499 19 50 19 C 52.755501 19 55 16.755501 55 14 C 55 11.244499 52.755501 9 50 9 z M 50 10 C 52.215061 10 54 11.784939 54 14 C 54 16.215061 52.215061 18 50 18 C 47.784939 18 46 16.215061 46 14 C 46 11.784939 47.784939 10 50 10 z M 23 17 C 20.244499 17 18 19.244499 18 22 C 18 24.755501 20.244499 27 23 27 C 25.755501 27 28 24.755501 28 22 C 28 19.244499 25.755501 17 23 17 z M 77 17 C 74.244499 17 72 19.244499 72 22 C 72 24.755501 74.244499 27 77 27 C 79.755501 27 82 24.755501 82 22 C 82 19.244499 79.755501 17 77 17 z M 23 18 C 25.215061 18 27 19.784939 27 22 C 27 24.215061 25.215061 26 23 26 C 20.784939 26 19 24.215061 19 22 C 19 19.784939 20.784939 18 23 18 z M 77 18 C 79.215061 18 81 19.784939 81 22 C 81 24.215061 79.215061 26 77 26 C 74.784939 26 73 24.215061 73 22 C 73 19.784939 74.784939 18 77 18 z M 49.646484 21.646484 L 44.146484 27.146484 A 0.50005 0.50005 0 0 0 44.5 28 L 49 28 L 49 41 A 1.0001 1.0001 0 1 0 51 41 L 51 28 L 55.5 28 A 0.50005 0.50005 0 0 0 55.853516 27.146484 L 50.353516 21.646484 L 50 22.5 L 49.646484 21.646484 z M 50 22.707031 L 54.292969 27 L 50.154297 27 A 1.0001 1.0001 0 0 0 49.984375 26.986328 A 1.0001 1.0001 0 0 0 49.839844 27 L 45.707031 27 L 50 22.707031 z M 28.5 27 A 0.50005 0.50005 0 0 0 28 27.5 L 28 35.277344 A 0.50005 0.50005 0 0 0 28.853516 35.630859 L 32.035156 32.449219 L 41.292969 41.707031 A 1.0001 1.0001 0 1 0 42.707031 40.292969 L 34.142578 31.726562 L 33.488281 32.412109 A 1.0001 1.0001 0 0 0 33.480469 31.003906 L 36.484375 28 L 36.277344 28 L 36.277344 27 L 28.5 27 z M 63.722656 27 A 0.50005 0.50005 0 0 0 63.369141 27.853516 L 66.550781 31.035156 L 57.292969 40.292969 A 1.0001 1.0001 0 1 0 58.707031 41.707031 L 67.964844 32.449219 L 71.146484 35.630859 A 0.50005 0.50005 0 0 0 72 35.277344 L 72 27.5 A 0.50005 0.50005 0 0 0 71.5 27 L 63.722656 27 z M 29 28 L 35.070312 28 L 32.091797 30.980469 A 1.0001 1.0001 0 0 0 32.042969 31.029297 L 32.019531 31.052734 L 29 34.070312 L 29 28 z M 64.929688 28 L 71 28 L 71 34.070312 L 68.082031 31.152344 A 1.0001 1.0001 0 0 0 67.851562 30.921875 L 64.929688 28 z M 27 46 C 25.906937 46 25 46.906937 25 48 L 25 57 C 25 58.766121 25.776442 60.354882 27 61.455078 L 27 85 C 27 88.301625 29.698375 91 33 91 L 67 91 C 70.301625 91 73 88.301625 73 85 L 73 61.455078 C 74.223558 60.354882 75 58.766121 75 57 L 75 48 C 75 46.906937 74.093063 46 73 46 L 27 46 z M 27 48 L 73 48 L 73 57 C 73 59.220375 71.220375 61 69 61 L 31 61 C 28.779625 61 27 59.220375 27 57 L 27 48 z M 29.5 50 A 0.50005 0.50005 0 1 0 29.5 51 L 61.5 51 A 0.50005 0.50005 0 1 0 61.5 50 L 29.5 50 z M 63.5 50 A 0.50005 0.50005 0 1 0 63.5 51 L 66.5 51 A 0.50005 0.50005 0 1 0 66.5 50 L 63.5 50 z M 68.5 50 A 0.50005 0.50005 0 1 0 68.5 51 L 70.5 51 A 0.50005 0.50005 0 1 0 70.5 50 L 68.5 50 z M 29 62.648438 C 29.627072 62.872079 30.298323 63 31 63 L 69 63 C 69.701677 63 70.372928 62.872079 71 62.648438 L 71 85 C 71 87.220375 69.220375 89 67 89 L 33 89 C 30.779625 89 29 87.220375 29 85 L 29 62.648438 z M 31.492188 64.992188 A 0.50005 0.50005 0 0 0 31 65.5 L 31 80.5 C 31 84.084167 33.915833 87 37.5 87 L 62.5 87 C 66.084167 87 69 84.084167 69 80.5 L 69 65.5 A 0.50005 0.50005 0 1 0 68 65.5 L 68 80.5 C 68 83.543833 65.543833 86 62.5 86 L 37.5 86 C 34.456167 86 32 83.543833 32 80.5 L 32 65.5 A 0.50005 0.50005 0 0 0 31.492188 64.992188 z M 43.5 67 C 42.125015 67 41 68.125015 41 69.5 L 41 70.5 C 41 71.874985 42.125015 73 43.5 73 L 56.5 73 C 57.874985 73 59 71.874985 59 70.5 L 59 69.5 C 59 68.125015 57.874985 67 56.5 67 L 43.5 67 z M 43.5 68 L 56.5 68 C 57.335015 68 58 68.664985 58 69.5 L 58 70.5 C 58 71.335015 57.335015 72 56.5 72 L 43.5 72 C 42.664985 72 42 71.335015 42 70.5 L 42 69.5 C 42 68.664985 42.664985 68 43.5 68 z"/></svg>